inDegrees=no
num_controls=7
num_derivatives=13
num_iterations=51
num_multipliers=7
num_parameters=0
num_slacks=7
num_states=26
objective=0.471667
objective_accelerations=0.061974
objective_balance=0.000957
objective_effort=0.017057
objective_height=0.382482
objective_ligament=0.009197
solver_duration=697.995490
status=Solve_Succeeded
success=true
DataType=double
version=3
OpenSimVersion=4.5
endheader
time	/jointset/ground_pelvis/pelvis_tilt/value	/jointset/ground_pelvis/pelvis_tx/value	/jointset/ground_pelvis/pelvis_ty/value	/jointset/hip_l/hip_flexion_l/value	/jointset/hip_l/hip_adduction_l/value	/jointset/hip_l/hip_rotation_l/value	/jointset/back/lumbar_extension/value	/jointset/patellofemoral_l/patellar_flexion_l/value	/jointset/knee_l/knee_flexion_l/value	/jointset/knee_l/knee_adduction_l/value	/jointset/knee_l/knee_rotation_l/value	/jointset/ankle_l/ankle_angle_l/value	/jointset/subtalar_l/subtalar_angle_l/value	/jointset/ground_pelvis/pelvis_tilt/speed	/jointset/ground_pelvis/pelvis_tx/speed	/jointset/ground_pelvis/pelvis_ty/speed	/jointset/hip_l/hip_flexion_l/speed	/jointset/hip_l/hip_adduction_l/speed	/jointset/hip_l/hip_rotation_l/speed	/jointset/back/lumbar_extension/speed	/jointset/patellofemoral_l/patellar_flexion_l/speed	/jointset/knee_l/knee_flexion_l/speed	/jointset/knee_l/knee_adduction_l/speed	/jointset/knee_l/knee_rotation_l/speed	/jointset/ankle_l/ankle_angle_l/speed	/jointset/subtalar_l/subtalar_angle_l/speed	/forceset/tau_hip_flexion_l	/forceset/tau_hip_adduction_l	/forceset/tau_hip_rotation_l	/forceset/tau_knee_flexion_l	/forceset/tau_ankle_angle_l	/forceset/tau_subtalar_angle_l	/forceset/tau_lumbar_extension	lambda_cid13_p0	lambda_cid13_p1	lambda_cid13_p2	lambda_cid13_p3	lambda_cid13_p4	lambda_cid13_p5	lambda_cid14_p0	/jointset/ground_pelvis/pelvis_tilt/accel	/jointset/ground_pelvis/pelvis_tx/accel	/jointset/ground_pelvis/pelvis_ty/accel	/jointset/hip_l/hip_flexion_l/accel	/jointset/hip_l/hip_adduction_l/accel	/jointset/hip_l/hip_rotation_l/accel	/jointset/back/lumbar_extension/accel	/jointset/patellofemoral_l/patellar_flexion_l/accel	/jointset/knee_l/knee_flexion_l/accel	/jointset/knee_l/knee_adduction_l/accel	/jointset/knee_l/knee_rotation_l/accel	/jointset/ankle_l/ankle_angle_l/accel	/jointset/subtalar_l/subtalar_angle_l/accel	gamma_cid13_p0	gamma_cid13_p1	gamma_cid13_p2	gamma_cid13_p3	gamma_cid13_p4	gamma_cid13_p5	gamma_cid14_p0
1.5	-0.4325960590193874	0.01861606830469556	0.797485160164919	1.07584275920641	-0.3475377858432588	-0.08043258079753152	-0.3300008999430589	0.7010944104223922	0.7010944104223493	-0.0359098502421065	-0.1666390655209265	0.1681441175518227	0.1278609537417212	0.7569150046893507	0.3525024932949043	0.4591288257156986	-2.503983720128497	0.02450854771854671	-0.5619260959485657	0.6173745746911007	-1.890365126719623	-1.890365126719612	-0.1950569193140479	0.05247891146276026	-0.274031220484068	-0.06073981788905757	-0.1631750034753325	0.0669061722707063	0.00189943421163216	-0.09461861129548692	-0.009666782829469048	-0.01700404837421991	0.1431139941598304	-28.61388066313532	11.10656901870591	-0.5800700130543756	-2.141076540483905	-430.652848640685	-28.77228870787817	-14.81242137905865	0.6693632086613649	0.6150923029108253	-0.6569542016200191	-1.365824086429093	0.3644650588773785	-0.2076872264036006	1.593986637456889	-0.9423387741676655	-0.9423387741676695	-0.2223290042915376	0.2862337976496827	-0.26659424954775	0.3554698760831445	2.23142593041477e-07	1.530912603385498e-06	-2.147747373436316e-06	1.257514220686327e-07	6.375116984243884e-07	6.99191800963181e-07	4.534629950313142e-07
1.51	-0.4249940076663945	0.02217137648079567	0.8020427070622093	1.050736949262171	-0.3472756143088544	-0.08606506243416033	-0.3237492615394903	0.6821456810980773	0.6821456810984978	-0.03787180833395882	-0.1661040150878269	0.1653905408753979	0.1272700174222085	0.7633697760749245	0.3585025785396193	0.4522842473987945	-2.51682639946936	0.02792082621505537	-0.5644513047687795	0.632845260363338	-1.89912807170262	-1.899128071702627	-0.1973669387105174	0.05457497327411365	-0.2766422003028318	-0.05744390360378285	-0.1575695375514638	0.06561038829990583	0.002626279155548201	-0.09276630899820452	-0.01036750551644851	-0.01790908462215807	0.1387315193628353	-28.72672318074915	11.35172865423738	-0.4276524364625398	-1.765857066424032	-427.398136033977	-28.76480596292372	-15.56033586016838	0.614712318239421	0.5840823320484809	-0.7126070297938751	-1.190707415460267	0.3284220612513989	-0.2568309189666163	1.507432683036356	-0.8054292625484478	-0.8054292625512433	-0.2396075609105037	0.1778982258743503	-0.2519598390539409	0.316627778956668	8.280835037294044e-09	2.682511659046465e-06	-4.98092671765183e-07	3.734297794957019e-07	3.770298422713093e-07	8.023660255363456e-07	3.41822539662808e-07
1.52	-0.4173311729566143	0.02578500864870121	0.8065289286997175	1.02551326901302	-0.3469795574262567	-0.09171917480071848	-0.3173461516490108	0.6631168909438957	0.6631168909438968	-0.0398577204523124	-0.1655466828651672	0.1626121324025663	0.1267120353603914	0.7690716760498165	0.3641672916559917	0.4448637737592937	-2.527557781112094	0.03128561736002024	-0.5662522419543673	0.6476688720727675	-1.906377292772922	-1.906377292772947	-0.1998477242503559	0.05693526920527777	-0.2789975797621188	-0.05414896635021053	-0.1519640716272875	0.0643146043295638	0.003353124093108591	-0.09091400670074269	-0.01106822820322966	-0.01881412086935847	0.1343490445660209	-28.84049564051983	11.59660329472168	-0.2746775294556167	-1.393736582809097	-424.1561211628172	-28.7854709169907	-16.29990712824683	0.5187889265251147	0.5480178772424363	-0.7721332661393603	-0.9435645468028755	0.354967588568981	-0.0628328994783267	1.464571844895192	-0.6395939916288655	-0.6395939916288669	-0.2564822329653348	0.3390806216117933	-0.2154741776522907	0.3552744697426763	-1.419514328960394e-07	3.444872167151125e-06	6.186710839679698e-07	5.345983176392263e-07	1.922563498792683e-07	8.467025760857533e-07	2.626001514178917e-07
1.53	-0.4096151346709145	0.02945357597828912	0.810938129924478	1.000193051097258	-0.3466496655655283	-0.09738969831003196	-0.3107979829957495	0.6440235034965273	0.64402350349657	-0.0418673701425042	-0.1649657217484011	0.1598117507652984	0.1261876321667232	0.7740107435753814	0.3694862998573921	0.4368879505619862	-2.536127933125768	0.03468309872882155	-0.5677459381178984	0.661855736710225	-1.912029793675416	-1.912029793675458	-0.2021040005863891	0.05928344575919256	-0.2810244615195835	-0.05072952492491752	-0.1464448450085989	0.06294303092211524	0.003974408399823907	-0.08911544741580694	-0.01170530855821831	-0.01975230298157857	0.1300281413277119	-28.94806064857663	11.85837471620263	-0.1284953650210237	-1.046154069327212	-421.1389276151608	-28.7915165485539	-17.02723674199646	0.4626607488420773	0.5149893160070682	-0.8235785275969343	-0.760084590337746	0.3299963530559945	-0.1764948073020137	1.379375492648325	-0.4875564555941396	-0.4875564555966341	-0.2127304634268574	0.1868898672029489	-0.1880360880789727	0.3348038349146367	-2.235148676290961e-07	3.793666718477214e-06	1.169238209642026e-06	6.038501727939852e-07	8.792299398332927e-08	8.285240979849199e-07	2.178219594917894e-07
1.54	-0.401853466693307	0.03317356279477409	0.8152649185810518	0.9747978628490185	-0.3462862273026922	-0.1030719301474945	-0.3041112193522191	0.6248816953769143	0.6248816953770392	-0.04390008862190559	-0.1643604381271322	0.1569927521277987	0.1256973283585083	0.7781976144317633	0.3744511890354046	0.4283812601219562	-2.542551847606965	0.03799489777842784	-0.5685939075818846	0.6753878701267994	-1.916061427219284	-1.916061427219342	-0.2044614821025991	0.06179977010997726	-0.2827209798084611	-0.04732908925994077	-0.1409256183899249	0.06157145751465305	0.004595692706677493	-0.08731688813084545	-0.01234238891319712	-0.02069048509380651	0.1257072380893814	-29.05842725054071	12.12173683460989	0.0161763932490464	-0.6868652790241266	-418.1579097024468	-28.80514906114783	-17.73832664794585	0.3683495926885517	0.4771940725649517	-0.8783067146838689	-0.5143170403070857	0.3378311247299735	0.06631244043073559	1.333625600718499	-0.3154205199034744	-0.3154205199034741	-0.2767232690007094	0.3727101809858065	-0.1494014839347733	0.3514733176794385	-2.553928088568712e-07	3.879877614466514e-06	1.339976353069506e-06	6.202858879979519e-07	4.722705992780273e-08	8.129982859209758e-07	1.985557585404753e-07
1.55	-0.3940537584477512	0.03694136724258539	0.8195040795515494	0.949349241938899	-0.345890049908085	-0.1087589838048753	-0.2972925232101582	0.6057077053245964	0.605707705324431	-0.04595706546848598	-0.1637287378901184	0.1541584636481624	0.1252409970274553	0.7816089049277404	0.3790431975082573	0.419372022868661	-2.546799601900863	0.04123927227158927	-0.5687673676668399	0.6882315236019567	-1.918461593139835	-1.918461593139891	-0.2068976429331292	0.06452973865958868	-0.2840788298158808	-0.04392335449688767	-0.1354044944658218	0.0601304402739087	0.005098680127718895	-0.08566462028649521	-0.01282433129244506	-0.02164537788885602	0.1213749873353707	-29.13414172405141	12.39433519832015	0.150185163678819	-0.352997710099197	-415.4215894632541	-28.83433503169184	-18.42895833005169	0.3072338727876957	0.4403390202943158	-0.9240493014539704	-0.3241134098414485	0.31696962435916	-0.05157680143186957	1.241760018308519	-0.161108971705883	-0.1611089717055384	-0.2209839645342501	0.2216890679209834	-0.120193289628005	0.3365324390406585	-2.300244206111729e-07	3.66354647278518e-06	1.07308545173465e-06	5.758682245629656e-07	7.985250321013874e-08	8.005288064647518e-07	2.086838080601114e-07
